<?xml version="1.0" encoding="utf-8"?>
<!-- Generator: Adobe Illustrator 21.1.0, SVG Export Plug-In . SVG Version: 6.00 Build 0)  -->
<svg version="1.1" id="Layer_1" xmlns="http://www.w3.org/2000/svg" xmlns:xlink="http://www.w3.org/1999/xlink" x="0px" y="0px"
	 viewBox="0 0 235.9 45.4" style="enable-background:new 0 0 235.9 45.4;" xml:space="preserve">
<style type="text/css">
	.st0{fill:#FFFFFF;}
	.st1{fill:#BF2231;}
</style>
<polygon class="st0" points="235.9,17.1 24.5,39.1 0,17.1 0,0 235.9,0 "/>
<g>
	<path d="M31.5,5.2c-1.1,0.3-2.2,0.7-3.2,1.3s-1.8,1.2-2.6,2C25,9.2,24.5,10,24,10.9c-0.4,0.9-0.6,1.8-0.6,2.7c0,0.5,0.1,1,0.3,1.4
		c0.2,0.4,0.5,0.6,0.8,0.6s0.6-0.1,0.8-0.2c0.2-0.1,0.4-0.3,0.7-0.4c0.2-0.2,0.5-0.3,0.8-0.4c0.3-0.1,0.7-0.2,1.1-0.2
		c0.5,0,1,0.1,1.4,0.3s0.8,0.5,1.2,0.9c0.3,0.4,0.6,0.8,0.8,1.3c0.2,0.5,0.3,1.1,0.3,1.7s-0.1,1.2-0.4,1.8c-0.3,0.5-0.6,1-1.1,1.4
		s-1,0.7-1.6,1c-0.6,0.2-1.3,0.3-2,0.3c-0.9,0-1.8-0.2-2.6-0.6c-0.8-0.4-1.5-1-2.1-1.7s-1.1-1.5-1.4-2.5c-0.3-0.9-0.5-1.9-0.5-3
		c0-1.7,0.3-3.2,0.9-4.6s1.5-2.6,2.5-3.7c1.1-1,2.3-1.9,3.7-2.5c1.4-0.6,2.9-1,4.4-1.1v1.8H31.5z M44.9,5.2
		c-1.1,0.3-2.2,0.7-3.2,1.3s-1.8,1.2-2.6,2c-0.7,0.7-1.3,1.6-1.7,2.4c-0.4,0.9-0.6,1.8-0.6,2.7c0,0.5,0.1,1,0.3,1.4s0.5,0.6,0.8,0.6
		s0.6-0.1,0.8-0.2c0.2-0.1,0.4-0.3,0.7-0.4c0.2-0.2,0.5-0.3,0.8-0.4c0.3-0.1,0.7-0.2,1.1-0.2c0.5,0,1,0.1,1.4,0.3s0.8,0.5,1.2,0.9
		c0.3,0.4,0.6,0.8,0.8,1.3S45,18,45,18.6s-0.1,1.2-0.4,1.8c-0.3,0.5-0.6,1-1.1,1.4s-1,0.7-1.6,1c-0.6,0.2-1.3,0.3-2,0.3
		c-0.9,0-1.8-0.2-2.6-0.6s-1.5-1-2.1-1.7s-1.1-1.5-1.4-2.5c-0.3-0.9-0.5-1.9-0.5-3c0-1.7,0.3-3.2,0.9-4.6c0.6-1.4,1.5-2.6,2.5-3.7
		c1.1-1,2.3-1.9,3.7-2.5s2.9-1,4.4-1.1L44.9,5.2L44.9,5.2z"/>
</g>
<path class="st1" d="M235.9,45.4V16.1c0-1.6-1.3-2.8-2.8-2.8h-178c0,12.2-9.9,22.1-22.1,22.1s-22.1-9.9-22.1-22.1h-8
	c-1.6,0-2.8,1.3-2.8,2.8v29.3H235.9z"/>
</svg>
